<svg xmlns="http://www.w3.org/2000/svg" viewBox="0 0 512 512" width="100%" height="100%">
  <defs>
    <!-- Background Gradient -->
    <radialGradient id="bgGrad" cx="50%" cy="50%" r="50%">
      <stop offset="0%" stop-color="#0e172a"/>
      <stop offset="70%" stop-color="#070b14"/>
      <stop offset="100%" stop-color="#03050a"/>
    </radialGradient>

    <!-- Primary Emerald/Cyan Cyber Gradient -->
    <linearGradient id="cyberGreen" x1="0%" y1="0%" x2="100%" y2="100%">
      <stop offset="0%" stop-color="#10b981"/>
      <stop offset="50%" stop-color="#06b6d4"/>
      <stop offset="100%" stop-color="#3b82f6"/>
    </linearGradient>

    <!-- Glowing Accent Gradient -->
    <linearGradient id="neonGlow" x1="0%" y1="100%" x2="100%" y2="0%">
      <stop offset="0%" stop-color="#059669"/>
      <stop offset="50%" stop-color="#10b981"/>
      <stop offset="100%" stop-color="#34d399"/>
    </linearGradient>

    <!-- Gold Accent Gradient -->
    <linearGradient id="goldGrad" x1="0%" y1="0%" x2="100%" y2="100%">
      <stop offset="0%" stop-color="#f59e0b"/>
      <stop offset="100%" stop-color="#fbbf24"/>
    </linearGradient>

    <!-- Glow Filter -->
    <filter id="glow" x="-20%" y="-20%" width="140%" height="140%">
      <feGaussianBlur stdDeviation="8" result="blur" />
      <feComposite in="SourceGraphic" in2="blur" operator="over"/>
    </filter>

    <filter id="heavyGlow" x="-50%" y="-50%" width="200%" height="200%">
      <feGaussianBlur stdDeviation="16" result="blur" />
      <feComposite in="SourceGraphic" in2="blur" operator="over"/>
    </filter>
  </defs>

  <!-- Background Canvas -->
  <rect width="512" height="512" rx="110" fill="url(#bgGrad)"/>
  
  <!-- Outer Tech Border with Rounded Squircle -->
  <rect x="16" y="16" width="480" height="480" rx="98" fill="none" stroke="url(#cyberGreen)" stroke-width="2.5" stroke-opacity="0.35"/>
  <rect x="28" y="28" width="456" height="456" rx="86" fill="none" stroke="#1e293b" stroke-width="1.5" stroke-dasharray="8 6" stroke-opacity="0.6"/>

  <!-- Background Quantum Grid Nodes -->
  <g opacity="0.15" stroke="#38bdf8" stroke-width="1">
    <line x1="90" y1="160" x2="422" y2="160" stroke-dasharray="4 4"/>
    <line x1="90" y1="256" x2="422" y2="256" stroke-dasharray="4 4"/>
    <line x1="90" y1="352" x2="422" y2="352" stroke-dasharray="4 4"/>
    <line x1="160" y1="90" x2="160" y2="422" stroke-dasharray="4 4"/>
    <line x1="256" y1="90" x2="256" y2="422" stroke-dasharray="4 4"/>
    <line x1="352" y1="90" x2="352" y2="422" stroke-dasharray="4 4"/>
  </g>

  <!-- Ambient Light Center Glow -->
  <circle cx="256" cy="256" r="140" fill="#10b981" opacity="0.08" filter="url(#heavyGlow)"/>

  <!-- Candlestick Graphic Silhouette in Background -->
  <g opacity="0.45">
    <!-- Candle 1 (Red / Dip) -->
    <line x1="130" y1="260" x2="130" y2="380" stroke="#f43f5e" stroke-width="2.5" stroke-linecap="round"/>
    <rect x="120" y="290" width="20" height="60" rx="4" fill="#f43f5e"/>

    <!-- Candle 2 (Green / Recovery) -->
    <line x1="180" y1="200" x2="180" y2="350" stroke="#10b981" stroke-width="2.5" stroke-linecap="round"/>
    <rect x="170" y="230" width="20" height="85" rx="4" fill="#10b981"/>

    <!-- Candle 3 (Green / Strong Rise) -->
    <line x1="330" y1="130" x2="330" y2="300" stroke="#10b981" stroke-width="2.5" stroke-linecap="round"/>
    <rect x="320" y="160" width="20" height="95" rx="4" fill="#10b981"/>

    <!-- Candle 4 (Cyan / Peak) -->
    <line x1="385" y1="90" x2="385" y2="240" stroke="#06b6d4" stroke-width="2.5" stroke-linecap="round"/>
    <rect x="375" y="115" width="20" height="80" rx="4" fill="#06b6d4"/>
  </g>

  <!-- Dynamic Ascending Trend Ribbon Wave -->
  <path d="M 100 360 C 160 380, 180 280, 240 260 C 300 240, 340 140, 420 120" 
        fill="none" 
        stroke="url(#neonGlow)" 
        stroke-width="5" 
        stroke-linecap="round" 
        filter="url(#glow)"/>

  <!-- Arrow Indicator on Trend Wave Peak -->
  <polygon points="428,118 402,112 414,136" fill="#34d399" filter="url(#glow)"/>

  <!-- CENTRAL ICONIC MONOGRAM: Interlocking 'S S' Shield Mark -->
  <!-- Upper 'S' Arc -->
  <path d="M 320 170 
           C 320 135, 290 120, 256 120 
           C 210 120, 180 145, 180 185 
           C 180 230, 225 245, 256 256 
           C 290 268, 335 285, 335 330 
           C 335 375, 298 400, 256 400 
           C 215 400, 185 380, 182 345" 
        fill="none" 
        stroke="url(#cyberGreen)" 
        stroke-width="26" 
        stroke-linecap="round" 
        stroke-linejoin="round"
        filter="url(#glow)"/>

  <!-- High-Tech Geometric Slash / Quant Breakout Line -->
  <line x1="165" y1="355" x2="347" y2="165" stroke="#ffffff" stroke-width="4.5" stroke-linecap="round" opacity="0.9" filter="url(#glow)"/>

  <!-- Luminous Quantum Node Points -->
  <circle cx="165" cy="355" r="7" fill="#10b981" filter="url(#glow)"/>
  <circle cx="165" cy="355" r="3" fill="#ffffff"/>
  
  <circle cx="256" cy="256" r="8" fill="#38bdf8" filter="url(#glow)"/>
  <circle cx="256" cy="256" r="3.5" fill="#ffffff"/>

  <circle cx="347" cy="165" r="7" fill="#34d399" filter="url(#glow)"/>
  <circle cx="347" cy="165" r="3" fill="#ffffff"/>

  <!-- Corner Tech Accents -->
  <path d="M 45 75 L 45 45 L 75 45" fill="none" stroke="#10b981" stroke-width="3" stroke-linecap="round"/>
  <path d="M 467 75 L 467 45 L 437 45" fill="none" stroke="#06b6d4" stroke-width="3" stroke-linecap="round"/>
  <path d="M 45 437 L 45 467 L 75 467" fill="none" stroke="#06b6d4" stroke-width="3" stroke-linecap="round"/>
  <path d="M 467 437 L 467 467 L 437 467" fill="none" stroke="#10b981" stroke-width="3" stroke-linecap="round"/>
</svg>